# xmcd
#
# Track frame offsets:
#  150
#  9056
#  13433
#  23766
#  31871
#  43487
#  47759
#  58183
#  69417
#  80513
#  93204
#  104191
#  115118
#  118926
#  131854
#  147047
#  162822
#  166335
#  180505
#  192621
#  203361
#  214719
#  229254
#  232835
#  242583
#  254804
#  265235
#  277825
#  288399
#  300510
#  314606
#  322676
#  333998
#
# Disc length: 4622 seconds
#
# Revision: 0
# Processed by: cddbd v1.5.1PL2 Copyright (c) Steve Scherf et al.
# Submitted via: Collectorz.com_Music_Collector 6.11
#
DISCID=d4120c21
DTITLE=Yardbirds, The - The BBC Sessions
DYEAR=1999
DGENRE=Blues
TTITLE0=I Ain't Got You
TTITLE1=Keith Relf talks about the band's background
TTITLE2=For Your Love
TTITLE3=I'm Not Talking
TTITLE4=I Wish You Would
TTITLE5=Keith Relf says about USA tour
TTITLE6=Heart Full Of Soul
TTITLE7=I Ain't Done Wrong
TTITLE8=Too Much Monkey Business
TTITLE9=Love Me Like I Love You
TTITLE10=I'm A Man
TTITLE11=Evil Hearted You
TTITLE12=Interview about the Still I'm Sad single
TTITLE13=Still I'm Sad
TTITLE14=Hang On Sloopy
TTITLE15=Smokestack Lightning
TTITLE16=The Yardbirds give their New Year's resolution
TTITLE17=You're A Better Man Than I
TTITLE18=The Train Kept A-Rollin'
TTITLE19=Shapes Of Things
TTITLE20=Dust My Broom
TTITLE21=Baby, Scratch My Back
TTITLE22=Keith Relf talks about his solo single
TTITLE23=Over Under Sideways Down
TTITLE24=The Sun Is Shining
TTITLE25=Shape Of Things (version two)
TTITLE26=Most Likely You Go Your Way (And I'll Go Mine)
TTITLE27=Little Games
TTITLE28=Drinnking Muddy Water
TTITLE29=Think About It
TTITLE30=Interview with Jimmy Page
TTITLE31=Goodnight Sweet Josephine
TTITLE32=My Baby
EXTD=
EXTT0=
EXTT1=
EXTT2=
EXTT3=
EXTT4=
EXTT5=
EXTT6=
EXTT7=
EXTT8=
EXTT9=
EXTT10=
EXTT11=
EXTT12=
EXTT13=
EXTT14=
EXTT15=
EXTT16=
EXTT17=
EXTT18=
EXTT19=
EXTT20=
EXTT21=
EXTT22=
EXTT23=
EXTT24=
EXTT25=
EXTT26=
EXTT27=
EXTT28=
EXTT29=
EXTT30=
EXTT31=
EXTT32=
PLAYORDER=
